<svg xmlns="http://www.w3.org/2000/svg" version="1.1" xmlns:xlink="http://www.w3.org/1999/xlink" xmlns:svgjs="http://svgjs.dev/svgjs" width="1920" height="1080" preserveAspectRatio="none" viewBox="0 0 1920 1080"><g mask="url(&quot;#SvgjsMask1023&quot;)" fill="none"><rect width="1920" height="1080" x="0" y="0" fill="rgba(94, 111, 82, 1)"></rect><path d="M960 1355.39C1164.07 1336.48 1309.86 1179.44 1460.96 1040.96 1622.97 892.48 1842.95 759.64 1849.68 540 1856.51 317.88 1664.58 148.18 1492.71 7.29 1340.56-117.46 1156.69-195.08 960-189.37 768.99-183.83 600.48-89.24 457.34 37.34 302.34 174.4 153.89 333.96 135.16 540 115 761.78 198.4 986.66 356.77 1143.23 514.36 1299.02 739.37 1375.82 960 1355.39" fill="rgba(126, 140, 117, 1)"></path><path d="M960 1067.6C1092.04 1055.37 1186.38 953.75 1284.15 864.15 1388.98 768.07 1531.32 682.12 1535.67 540 1540.1 396.27 1415.91 286.47 1304.7 195.3 1206.25 114.59 1087.27 64.36 960 68.06 836.4 71.64 727.37 132.85 634.75 214.75 534.45 303.43 438.4 406.68 426.28 540 413.23 683.51 467.2 829.01 569.68 930.32 671.65 1031.13 817.24 1080.83 960 1067.6" fill="rgba(158, 169, 151, 1)"></path><path d="M960 779.82C1020.02 774.26 1062.9 728.07 1107.34 687.34 1154.99 643.67 1219.69 604.6 1221.67 540 1223.68 474.67 1167.23 424.76 1116.68 383.32 1071.93 346.63 1017.85 323.8 960 325.48 903.82 327.11 854.26 354.93 812.16 392.16 766.57 432.47 722.91 479.4 717.4 540 711.47 605.23 736 671.37 782.58 717.42 828.93 763.24 895.11 785.83 960 779.82" fill="rgba(191, 197, 186, 1)"></path></g><defs><mask id="SvgjsMask1023"><rect width="1920" height="1080" fill="#ffffff"></rect></mask></defs></svg>